Thx Hive

CM8 Doing It Right The First Time

Why download a touched up rip of a rip BRrip
Get the real deal BDRip
Enjoy
SCREENS:
 
http://img525.imageshack.us/img525/4421/nt3.png 
http://img191.imageshack.us/img191/2731/nt4.png 
http://img600.imageshack.us/img600/2299/nt5.png 
http://img227.imageshack.us/img227/2730/nt1.png 
http://img220.imageshack.us/img220/7562/nt2.png


Source UK Bluray

Video: 720x400 @bitrate 1600 2pass
Audio: DTS to AC3 5.1 @448
Sample: yes included
Subs: yes included in srt /subs
Nativity IMDB Link

General
Complete name : Nativity.2009.BDRip.XVID.AC3.HQ.Hive-CM8.avi
Format : AVI
Format/Info : Audio Video Interleave
File size : 1.52 GiB
Duration : 1h 45mn
Overall bit rate : 2 056 Kbps
Writing application : Nandub v1.0rc2
Writing library : Nandub build 1853/release

Video
ID : 0
Format : MPEG-4 Visual
Format profile : Advanced Simple@L5
Format settings, BVOP : Yes
Format settings, QPel : Yes
Format settings, GMC : No warppoints
Format settings, Matrix : Default (H.263)
Muxing mode : Packed bitstream
Codec ID : XVID
Codec ID/Hint : XviD
Duration : 1h 45mn
Bit rate : 1 598 Kbps
Width : 720 pixels
Height : 400 pixels
Display aspect ratio : 16:9
Frame rate : 23.976 fps
Color space : YUV
Chroma subsampling : 4:2:0
Bit depth : 8 bits
Scan type : Progressive
Bits/(Pixel*Frame) : 0.231
Stream size : 1.18 GiB (78%)
Writing library : XviD 1.2.1 (UTC 2008-12-04)

Audio
ID : 1
Format : AC-3
Format/Info : Audio Coding 3
Mode extension : CM (complete main)
Codec ID : 2000
Duration : 1h 45mn
Bit rate mode : Constant
Bit rate : 448 Kbps
Channel(s) : 6 channels
Channel positions : Front: L C R, Side: L R, LFE
Sampling rate : 48.0 KHz
Bit depth : 16 bits
Stream size : 339 MiB (22%)
Alignment : Split accross interleaves
Interleave, duration : 42 ms (1.00 video frame)
Interleave, preload duration : 500 ms


CAST
Martin Freeman - Paul Maddens
Ashley Jensen - Jennifer
Pam Ferris - Headmistress
Ricky Tomlinson - Mayor

PLOT
This Christmas, primary school teacher Paul Maddens is
charged with producing the school's nativity play.
Competing against the posh rival school for the honor of
best reviewed show in town, the stakes are raised when Paul
idly boasts that his ex-girlfriend Jennifer, a Hollywood Producer,
is coming to see his show with a view to turning it into a film.
The only trouble is - they haven't spoken in years.